# xmcd
#
# Track frame offsets:
#	150
#	20862
#	40877
#	61997
#	85220
#	99235
#
# Disc length: 1594 seconds
#
# Revision: 1
# Processed by: cddbd v1.5.1PL0 Copyright (c) Steve Scherf et al.
# Submitted via: CDex 1.50Beta5
#
DISCID=45063806
DTITLE=Platon - シンセカイ
DYEAR=2003
DGENRE=Alternative
TTITLE0=スプリング
TTITLE1=センリツ
TTITLE2=スローモーション
TTITLE3=ハートに火をつけて
TTITLE4=自転車に逆らいながら
TTITLE5=カランコロン
EXTD=
EXTT0=
EXTT1=
EXTT2=
EXTT3=
EXTT4=
EXTT5=
PLAYORDER=
